# xmcd
#
# Track frame offsets: 
#        150
#        15218
#        29666
#        40739
#        54448
#        65559
#        80428
#        92821
#        105009
#        120192
#        134699
#        151622
#        166721
#        180587
#        192795
#        209151
#        229596
#        247659
#        260654
#        274328
#        285672
#        300882
#        314166
#
# Disc length: 4408 seconds
#
# Revision: 0
# Processed by: cddbd v1.5.2PL0 Copyright (c) Steve Scherf et al.
# Submitted via: ExactAudioCopy v1.0b4
#
DISCID=29113617
DTITLE=Cristiano Araújo - Efeitos - Tour 2011
DYEAR=2011
DGENRE=Sertanejo
TTITLE0=Efeitos
TTITLE1=Nem pintado de ouro
TTITLE2=Te odeio te adoro
TTITLE3=É fato - Part. Gusttavo Lima
TTITLE4=Novela que não sai do ar
TTITLE5=Bebendo cantando e chorando
TTITLE6=Simples assim - Part. Humberto e Ronaldo
TTITLE7=O quanto nosso amor valeu
TTITLE8=Puro fogo
TTITLE9=Você vai ficar em mim
TTITLE10=Você mudou
TTITLE11=Nosso amor já era
TTITLE12=Vem fazer amor comigo
TTITLE13=Nosso amor deu liga
TTITLE14=Por-Pourri: Mal acostumada - Cara a cara frente a frente
TTITLE15=Acústico - Você ainda vai voltar - Saudade bandida - Part. Jo
TTITLE15=ão Reis
TTITLE16=Meninas do buteco
TTITLE17=Relaxa
TTITLE18=Outdoor
TTITLE19=Cuida de mim todo dia - Part. Lucas and Diogo
TTITLE20=Bônus: Chorar por amor - Israel and Rodolfo e Part. Cristiano A
TTITLE20=raújo
TTITLE21=Copo de vinho - Zé Ricardo e Thiago - Part. Cristiano Araújo
TTITLE22=Trilha Secreta
EXTD=
EXTT0=
EXTT1=
EXTT2=
EXTT3=
EXTT4=
EXTT5=
EXTT6=
EXTT7=
EXTT8=
EXTT9=
EXTT10=
EXTT11=
EXTT12=
EXTT13=
EXTT14=
EXTT15=
EXTT16=
EXTT17=
EXTT18=
EXTT19=
EXTT20=
EXTT21=
EXTT22=
PLAYORDER=
